<svg xmlns="http://www.w3.org/2000/svg" width="500" height="500" viewBox="0 0 500 500"><rect width="500" height="500" fill="white"/><rect x="35" y="35" width="130" height="130" fill="#000"/><rect x="65" y="65" width="70" height="70" fill="#fff"/><rect x="85" y="85" width="30" height="30" fill="#000"/><rect x="335" y="35" width="130" height="130" fill="#000"/><rect x="365" y="65" width="70" height="70" fill="#fff"/><rect x="385" y="85" width="30" height="30" fill="#000"/><rect x="35" y="335" width="130" height="130" fill="#000"/><rect x="65" y="365" width="70" height="70" fill="#fff"/><rect x="85" y="385" width="30" height="30" fill="#000"/><g fill="#000"><rect x="205" y="195" width="25" height="25"/><rect x="245" y="195" width="25" height="25"/><rect x="285" y="195" width="25" height="25"/><rect x="205" y="235" width="25" height="25"/><rect x="285" y="235" width="25" height="25"/><rect x="325" y="235" width="25" height="25"/><rect x="205" y="275" width="25" height="25"/><rect x="245" y="275" width="25" height="25"/><rect x="325" y="275" width="25" height="25"/><rect x="365" y="275" width="25" height="25"/><rect x="205" y="315" width="25" height="25"/><rect x="285" y="315" width="25" height="25"/><rect x="365" y="315" width="25" height="25"/></g><rect x="0" y="430" width="500" height="70" fill="#f5f9ff"/><text x="250" y="458" text-anchor="middle" font-family="Arial" font-size="23" font-weight="700" fill="#1e3a5f">Replace with your real Cash App QR</text><text x="250" y="484" text-anchor="middle" font-family="Arial" font-size="16" fill="#64748b">Keep file name: cashapp-qr.svg</text></svg>